<?xml version="1.0" encoding="UTF-8" standalone="no"?>
<!DOCTYPE svg PUBLIC "-//W3C//DTD SVG 1.1//EN" "http://www.w3.org/Graphics/SVG/1.1/DTD/svg11.dtd">
<svg width="100%" height="100%" viewBox="0 0 289 288" version="1.1" xmlns="http://www.w3.org/2000/svg" xmlns:xlink="http://www.w3.org/1999/xlink" xml:space="preserve" xmlns:serif="http://www.serif.com/" style="fill-rule:evenodd;clip-rule:evenodd;stroke-linejoin:round;stroke-miterlimit:2;">
    <rect x="10" y="10" width="288.75" height="288" style="fill:rgb(242,148,0);"/>
    <g id="_x40_">
        <g>
            <path d="M217.704,191.621L238.765,191.621C232.172,205.002 222.055,215.483 208.41,223.064C192.788,231.765 173.737,236.116 151.26,236.116C129.507,236.116 110.72,232.44 94.9,225.091C79.08,217.74 67.313,206.898 59.601,192.561C51.888,178.224 48.033,162.619 48.033,145.743C48.033,127.221 52.416,109.967 61.183,93.981C69.949,77.997 81.947,65.999 97.174,57.99C112.401,49.98 129.803,45.976 149.381,45.976C165.992,45.976 180.757,49.206 193.678,55.665C206.597,62.126 216.469,71.305 223.291,83.202C230.114,95.101 233.525,108.104 233.525,122.21C233.525,139.019 228.349,154.214 218.001,167.792C205.015,184.932 188.371,193.5 168.068,193.5C162.596,193.5 157.615,193.405 155.709,190.633C155.504,190.335 177.736,171.635 178.106,172.077C178.237,172.235 179.868,173.329 180.924,173.329C184.088,173.329 188.174,171.418 193.185,167.594C199.909,162.586 205.346,155.863 209.499,147.424C213.652,138.986 215.728,130.253 215.728,121.221C215.728,105.005 209.86,91.444 198.127,80.533C186.394,69.624 170.012,64.169 148.985,64.169C131.121,64.169 115.975,67.812 103.55,75.095C91.124,82.379 81.764,92.63 75.469,105.846C69.174,119.063 66.027,132.824 66.027,147.127C66.027,161.036 69.537,173.692 76.557,185.096C83.577,196.5 93.431,204.822 106.121,210.062C118.809,215.303 133.327,217.923 149.677,217.923C165.431,217.923 178.977,215.731 190.315,211.348C201.651,206.963 210.782,200.388 217.704,191.621Z" style="fill:white;fill-rule:nonzero;"/>
        </g>
    </g>
    <g id="p">
        <g>
            <path d="M117.605,89.467L137.527,89.467L135.842,97.45C140.09,93.934 144.07,91.42 147.78,89.906C151.491,88.393 155.471,87.635 159.719,87.635C167.872,87.635 174.428,90.444 179.384,96.058C184.339,101.673 186.819,110.047 186.819,121.18C186.819,135.195 182.546,147.034 174.001,156.702C166.677,164.954 158.01,169.08 148.001,169.08C137.697,169.08 129.909,164.905 124.636,156.556L116.213,196.912L95.193,196.912L117.605,89.467ZM130.276,134.071C130.276,140.126 131.753,144.826 134.708,148.17C137.661,151.516 141.141,153.188 145.145,153.188C148.612,153.188 151.958,151.931 155.18,149.417C158.402,146.903 161.076,142.728 163.2,136.892C165.324,131.058 166.386,125.65 166.386,120.669C166.386,114.858 164.995,110.403 162.212,107.302C159.429,104.202 155.888,102.652 151.591,102.652C147.587,102.652 143.938,104.08 140.642,106.936C137.346,109.792 134.793,113.993 132.988,119.534C131.18,125.075 130.276,129.922 130.276,134.071Z" style="fill:white;fill-rule:nonzero;"/>
        </g>
    </g>
    <g transform="matrix(1.29811,0,0,1.29811,-63.3008,-83.4787)">
        <text x="215.726px" y="276.882px" style="font-family:'Arial-BoldMT', 'Arial', sans-serif;font-weight:700;font-size:80.558px;fill:white;">c</text>
    </g>
</svg>
